<svg width="66" height="66" viewBox="0 0 66 66" fill="none" xmlns="http://www.w3.org/2000/svg">
<g clip-path="url(#clip0_160_182)">
<path d="M33.1 65.3083C50.8488 65.3083 65.237 50.8158 65.237 32.9385C65.237 15.0611 50.8488 0.568604 33.1 0.568604C15.3512 0.568604 0.963013 15.0611 0.963013 32.9385C0.963013 50.8158 15.3512 65.3083 33.1 65.3083Z" fill="black"/>
<path d="M56.2821 15.8539H33.0987V25.2977H56.2821V15.8539Z" fill="url(#paint0_linear_160_182)"/>
<path d="M56.2821 15.8539H33.0987V25.2977H56.2821V15.8539Z" fill="url(#paint1_linear_160_182)" fill-opacity="0.5"/>
<path d="M33.1012 50.0228C23.748 50.0228 16.1384 42.3582 16.1384 32.9372C16.1384 23.5162 23.748 15.8527 33.1012 15.8527C42.4543 15.8527 50.0627 23.5174 50.0627 32.9372C50.0627 42.357 42.4532 50.0228 33.1012 50.0228ZM33.1012 25.2954C31.0895 25.2975 29.1609 26.1032 27.7383 27.5359C26.3158 28.9685 25.5155 30.911 25.5131 32.9372C25.5152 34.9636 26.3154 36.9064 27.738 38.3393C29.1605 39.7721 31.0893 40.5781 33.1012 40.5802C35.1128 40.5778 37.0413 39.7717 38.4636 38.3389C39.8859 36.906 40.6859 34.9634 40.688 32.9372C40.6856 30.9112 39.8855 28.9689 38.4632 27.5363C37.0409 26.1037 35.1126 25.2978 33.1012 25.2954Z" fill="#42FF98"/>
<path d="M25.5132 32.9386L17.9309 40.5759C19.3409 43.4129 21.5064 45.7991 24.1854 47.4677C26.8645 49.1362 29.9514 50.0214 33.1012 50.0243V40.5816C31.0894 40.5795 29.1606 39.7736 27.738 38.3407C26.3155 36.9078 25.5153 34.965 25.5132 32.9386Z" fill="url(#paint2_linear_160_182)"/>
<path d="M25.5132 32.9386L17.9309 40.5759C19.3409 43.4129 21.5064 45.7991 24.1854 47.4677C26.8645 49.1362 29.9514 50.0214 33.1012 50.0243V40.5816C31.0894 40.5795 29.1606 39.7736 27.738 38.3407C26.3155 36.9078 25.5153 34.965 25.5132 32.9386Z" fill="url(#paint3_linear_160_182)" fill-opacity="0.5"/>
<path d="M25.5136 64.4013C22.1508 63.5815 18.9945 62.229 16.1378 60.4375V32.9386H25.5136V64.4013Z" fill="url(#paint4_linear_160_182)"/>
</g>
<defs>
<linearGradient id="paint0_linear_160_182" x1="44.6904" y1="15.8539" x2="44.6904" y2="25.2977" gradientUnits="userSpaceOnUse">
<stop stop-color="#42FF98"/>
<stop offset="1" stop-color="#00C7E2"/>
</linearGradient>
<linearGradient id="paint1_linear_160_182" x1="39.6221" y1="27.1191" x2="43.5268" y2="15.8884" gradientUnits="userSpaceOnUse">
<stop/>
<stop offset="1" stop-opacity="0"/>
</linearGradient>
<linearGradient id="paint2_linear_160_182" x1="33.048" y1="44.9906" x2="20.285" y2="42.1748" gradientUnits="userSpaceOnUse">
<stop stop-color="#42FF98"/>
<stop offset="1" stop-color="#00C7E2"/>
</linearGradient>
<linearGradient id="paint3_linear_160_182" x1="21.3706" y1="50.0151" x2="30.5547" y2="50.47" gradientUnits="userSpaceOnUse">
<stop/>
<stop offset="1" stop-opacity="0"/>
</linearGradient>
<linearGradient id="paint4_linear_160_182" x1="20.8257" y1="39.4131" x2="20.8257" y2="64.3989" gradientUnits="userSpaceOnUse">
<stop stop-color="#42FF98"/>
<stop offset="1" stop-color="#00C7E2"/>
</linearGradient>
<clipPath id="clip0_160_182">
<rect width="64.274" height="64.7397" fill="white" transform="translate(0.963013 0.568604)"/>
</clipPath>
</defs>
</svg>
