<svg width="66" height="66" viewBox="0 0 66 66" fill="none" xmlns="http://www.w3.org/2000/svg">
<g clip-path="url(#clip0_160_380)">
<path d="M32.6885 65.2978C50.5658 65.2978 65.0583 50.8053 65.0583 32.9279C65.0583 15.0506 50.5658 0.558075 32.6885 0.558075C14.8111 0.558075 0.318604 15.0506 0.318604 32.9279C0.318604 50.8053 14.8111 65.2978 32.6885 65.2978Z" fill="#7F5FFF"/>
<path d="M62.8427 21.1344C58.1281 9.089 46.4045 0.558075 32.6884 0.558075C31.9928 0.558075 31.3022 0.58002 30.6175 0.623255C30.3704 1.02279 30.1943 1.44906 30.0133 1.88699C29.8055 2.38995 29.5913 2.90829 29.256 3.41921C28.24 4.96751 26.0828 5.99673 24.3418 6.82736C23.0247 7.45574 21.9458 7.97047 21.7796 8.51029C21.2324 10.3128 23.8466 13.4024 25.3407 13.9595C26.6496 14.4417 27.8671 13.4876 29.1897 12.4511C30.2736 11.6017 31.4282 10.6969 32.7615 10.4819C35.6999 10.0044 46.6301 11.0031 48.4525 13.8998C51.1642 16.9178 50.8538 21.8 49.2304 22.4784C48.3777 22.8347 46.9789 22.0504 45.449 21.1927C43.8519 20.2973 42.1119 19.3218 40.7015 19.4803C40.0583 19.5544 39.1621 19.9395 38.2054 20.3505C36.8511 20.9324 35.3757 21.5663 34.3252 21.4439C33.4288 21.3399 32.7135 20.1843 32.008 19.0445C31.4984 18.2212 30.9938 17.406 30.4298 17.0014C29.2043 16.124 22.271 17.638 20.4864 18.4457C18.3139 19.4226 13.384 26.4056 13.2526 28.9164C13.0935 31.8349 19.04 37.7238 21.4413 38.1913C22.6079 38.4169 24.1902 38.0455 25.7099 37.6889C27.474 37.2749 29.1536 36.8807 30.0001 37.4632C30.7245 37.9655 31.4757 41.5512 32.3604 45.7739C33.7742 52.5219 35.5288 60.8968 38.0595 60.9152C40.6697 60.9351 47.8019 51.1926 48.918 49.2986C49.8991 47.6236 49.888 45.3252 49.8791 43.4834C49.8738 42.3894 49.8693 41.4565 50.0739 40.9109C50.384 40.0832 51.4387 39.1373 52.5175 38.1697C53.8269 36.9955 55.1718 35.7893 55.2645 34.7237C55.3364 33.9361 54.1839 32.4812 53.0322 31.0272C51.6351 29.2634 50.2392 27.501 51.0309 26.9329C51.5392 26.5701 53.034 26.949 54.7146 27.3749C56.8222 27.9092 59.2221 28.5175 60.3356 27.8301C61.2338 27.276 61.6775 25.5466 62.2148 23.4521C62.4044 22.7131 62.6057 21.9287 62.8427 21.1344Z" fill="#FEE14A"/>
<path d="M55.5634 47.1851C54.3678 46.8767 52.9831 49.9644 52.5852 51.1302C52.2271 52.2065 51.5188 55.2743 52.5852 55.6623C53.8803 56.1298 55.6928 52.7437 56.0827 51.4287C56.3811 50.4021 56.6 47.4537 55.5654 47.195" fill="#FEE14A"/>
<path d="M4.95117 49.6239C4.01653 48.0746 3.20804 46.4405 2.53992 44.7361C3.60067 45.2065 4.44413 45.8177 4.79546 46.8805C5.09736 47.7951 5.0985 48.7003 4.95117 49.6239Z" fill="#FEE14A"/>
</g>
<defs>
<clipPath id="clip0_160_380">
<rect width="64.7397" height="64.7397" fill="white" transform="translate(0.318604 0.558075)"/>
</clipPath>
</defs>
</svg>
