<svg width="65" height="66" viewBox="0 0 65 66" fill="none" xmlns="http://www.w3.org/2000/svg">
<g clip-path="url(#clip0_160_213)">
<path d="M32.4042 65.6988C50.2816 65.6988 64.7741 51.2063 64.7741 33.329C64.7741 15.4516 50.2816 0.959106 32.4042 0.959106C14.5965 0.959106 0.147297 15.3389 0.0350342 33.1203V33.5377C0.147297 51.319 14.5965 65.6988 32.4042 65.6988Z" fill="#00ADFF"/>
<path d="M33.5359 33.2487C36.5156 17.5441 38.6371 14.8207 45.1418 15.3251C50.2277 15.7195 56.1413 23.0606 50.8035 38.9232C45.6615 54.2137 34.316 56.9315 26.0723 52.0455C20.0946 48.4995 15.3817 40.843 13.5975 36.6195C10.7893 29.9794 9.31371 22.7218 13.0102 18.7618C16.0367 15.517 19.5149 13.9531 26.0723 21.4064C32.6296 28.8596 33.5359 33.2487 33.5359 33.2487Z" fill="white"/>
</g>
<defs>
<clipPath id="clip0_160_213">
<rect width="64.7397" height="64.7397" fill="white" transform="translate(0.0344238 0.959106)"/>
</clipPath>
</defs>
</svg>
