<svg width="66" height="66" viewBox="0 0 66 66" fill="none" xmlns="http://www.w3.org/2000/svg">
<g clip-path="url(#clip0_160_577)">
<rect x="0.939697" y="0.790955" width="64.74" height="64.74" rx="32.37" fill="#FFF500"/>
<path d="M0.939697 33.1608C0.939697 15.2833 15.4323 0.790649 33.3098 0.790649C51.1874 0.790649 65.68 15.2833 65.68 33.1608C65.68 51.0383 51.1874 65.5309 33.3098 65.5309C15.4323 65.5309 0.939697 51.0383 0.939697 33.1608Z" fill="#FFF500"/>
<path fill-rule="evenodd" clip-rule="evenodd" d="M9.07558 54.6212C7.37592 52.7032 5.90046 50.582 4.69025 48.2987L19.6961 42.5516L32.7256 0.796126C32.9201 0.792683 33.1149 0.790955 33.3102 0.790955C37.8505 0.790955 42.1725 1.72572 46.0942 3.41331L42.7475 33.7232L64.721 25.3076C65.3308 27.7544 65.6622 30.3114 65.6796 32.9429L41.8249 42.079L39.2965 64.9788C37.3564 65.3416 35.3554 65.5312 33.3102 65.5312C32.7774 65.5312 32.2476 65.5184 31.7212 65.4929L33.9744 45.0856L25.7511 48.2351L21.0975 63.1483C18.7179 62.1782 16.4797 60.9331 14.4223 59.4524L16.86 51.6403L9.07558 54.6212ZM28.5872 39.1464L37.9394 9.17558L34.897 36.7298L28.5872 39.1464Z" fill="black"/>
</g>
<defs>
<clipPath id="clip0_160_577">
<rect x="0.939697" y="0.790955" width="64.74" height="64.74" rx="32.37" fill="white"/>
</clipPath>
</defs>
</svg>
