<svg width="65" height="66" viewBox="0 0 65 66" fill="none" xmlns="http://www.w3.org/2000/svg">
<g clip-path="url(#clip0_160_201)">
<path d="M32.5851 65.3289C50.4624 65.3289 64.9549 50.7322 64.9549 32.7262C64.9549 14.7202 50.4624 0.123474 32.5851 0.123474C14.7077 0.123474 0.21521 14.7202 0.21521 32.7262C0.21521 50.7322 14.7077 65.3289 32.5851 65.3289Z" fill="#2EE52E"/>
<path d="M50.7289 49.7384C50.7289 49.7384 47.6516 45.8442 44.8053 44.8433C42.4613 44.0205 38.2879 43.0227 38.2879 43.0227L39.4088 38.7631H40.1018C43.424 38.7631 46.4129 37.2501 46.4129 34.2818C46.4129 33.3278 46.3308 32.7844 46.3308 32.7844C46.3308 32.7844 50.3677 29.7209 50.3677 24.5292C50.3677 20.1916 45.4874 17.228 45.4874 14.7234C45.4874 14.0989 46.0161 13.4852 47.0702 13.3822L49.0081 13.1355C49.4685 13.0761 49.498 12.4157 49.0437 12.3157L47.1912 11.9098C46.9571 11.8582 46.7369 11.7567 46.5462 11.6131L46.3587 11.471C45.923 11.129 45.6285 10.7933 44.4704 10.7933C43.3046 10.7933 42.2117 11.5319 42.2117 13.899C42.2117 17.8213 46.9772 20.2634 46.9772 23.8734C46.9772 25.2568 45.9261 26.7651 43.7294 26.7651C41.0397 26.7651 38.877 23.4175 33.1193 23.4175C31.1893 23.4175 29.3615 23.7953 27.867 24.5745C25.075 23.216 16.0214 25.5191 16.0214 33.3871C16.0214 34.6831 16.471 35.8167 17.5252 35.8167C17.9065 35.8167 18.3406 35.6137 18.491 35.5372C18.677 35.442 19.2382 35.1594 19.2382 35.1594C19.2382 35.1594 19.9327 36.1103 21.1404 36.1103C23.6348 36.1103 24.9013 34.0617 24.9013 34.0617L26.6423 35.4264L23.2085 37.8216C22.9217 38.0215 22.7046 38.3072 22.5868 38.6382L19.6087 46.8263C19.4832 47.1761 19.3235 47.2495 19.0599 47.3432C18.7034 47.4696 17.167 47.8069 17.4926 49.3715C17.1794 49.2512 16.6229 49.4464 16.4307 49.8539L15.0385 53.2172C14.9021 53.5451 14.8928 53.9121 15.0122 54.2478C15.0122 54.2478 15.2385 54.813 15.7144 54.6178C16.733 54.0198 20.1916 50.8439 21.204 49.3027C22.8162 46.8482 25.7385 40.932 25.7385 40.932C25.9617 40.4885 26.3695 40.1684 26.85 40.056L34.9394 38.1776L34.5533 44.3405C34.5099 45.0354 34.989 45.6537 35.668 45.7786L43.2969 47.0481C43.703 48.355 44.7169 48.9264 45.4021 48.3206C45.3153 48.789 45.5231 49.2278 45.9556 49.3949L49.3941 50.53C49.729 50.6409 50.0933 50.6222 50.4157 50.4754C50.4173 50.4738 51.0544 50.1865 50.7289 49.7384Z" fill="black"/>
<path d="M30.0415 25.8391L20.5275 30.6296L21.2096 33.1903L28.3393 29.5787L26.3766 32.508L28.623 34.263L33.5963 31.2182C33.018 32.0473 31.7964 33.9679 33.4722 35.5402C36.0581 37.9667 41.3693 33.7852 43.9738 31.5992L42.6762 29.802C39.9276 32.0036 36.2379 34.1615 35.5217 33.5182C34.8086 32.878 36.8642 30.5577 38.1913 29.0619L38.2114 29.0385L35.9728 26.7963L30.2027 30.5015L32.0274 27.8549L30.0415 25.8391Z" fill="#FFE033"/>
</g>
<defs>
<clipPath id="clip0_160_201">
<rect x="0.21521" y="0.123474" width="64.7397" height="65.2055" rx="32.3699" fill="white"/>
</clipPath>
</defs>
</svg>
