<svg width="65" height="66" viewBox="0 0 65 66" fill="none" xmlns="http://www.w3.org/2000/svg">
<g clip-path="url(#clip0_160_355)">
<path d="M0.682007 32.7714C0.682007 14.7654 15.0702 0.168701 32.819 0.168701C50.5677 0.168701 64.956 14.7654 64.956 32.7714C64.956 50.7774 50.5677 65.3742 32.819 65.3742C15.0702 65.3742 0.682007 50.7774 0.682007 32.7714Z" fill="#FF4112"/>
<path d="M11.7011 57.3476C7.93744 54.0163 4.94603 49.8097 3.03528 45.0405L28.5946 4.58112L42.8318 14.2295L37.693 35.1399L50.1482 19.2521L60.5029 26.2776L56.4499 43.5093L63.7 41.8277C62.5337 45.928 60.5955 49.6962 58.0552 52.9599L43.3946 55.7936L47.2151 39.414L35.7967 53.9692L23.6393 51.7969L28.9689 30.0703L11.7011 57.3476Z" fill="#FFDD00"/>
</g>
<defs>
<clipPath id="clip0_160_355">
<rect x="0.681396" y="0.168701" width="64.274" height="65.2055" rx="32.137" fill="white"/>
</clipPath>
</defs>
</svg>
