<svg width="400" height="406" viewBox="0 0 400 406" fill="none" xmlns="http://www.w3.org/2000/svg">
<path d="M0 200.733C0 90.2763 89.5431 0.733276 200 0.733276C310.457 0.733276 400 90.2763 400 200.733C400 311.19 310.457 400.733 200 400.733C89.5431 400.733 0 311.19 0 200.733Z" fill="url(#paint0_radial_65_12651)"/>
<path d="M102.469 46.5768C106.628 43.4559 108.725 41.9663 113.062 39.2355V59.2735C116.546 58.8834 118.288 58.706 121.879 58.3868V34.0575C126.358 31.5749 128.669 30.44 133.29 28.383V98.2856C128.669 96.2286 126.358 95.0937 121.879 92.6111V68.3527C118.288 68.0335 116.546 67.8561 113.062 67.466V87.4331C108.725 84.7023 106.592 83.2482 102.469 80.1272V46.6478V46.5768Z" fill="black"/>
<path d="M138.339 100.378V26.1842C142.996 24.2691 145.377 23.4179 150.141 21.8929V48.9176C150.817 48.8467 151.137 48.8112 151.812 48.7403C157.464 48.1374 161.908 50.0171 165.037 54.6276C168.165 59.2381 169.765 66.8987 169.765 77.3255C169.765 88.4262 168.201 96.5124 165.072 101.052C161.944 105.592 157.713 107.01 152.381 105.414C146.693 103.676 143.884 102.683 138.339 100.449V100.378ZM151.954 90.7315C154.016 91.1571 155.474 90.0931 156.327 87.5041C157.18 84.9506 157.607 81.4395 157.607 77.0773C157.607 72.715 157.145 69.4522 156.256 66.9696C155.367 64.487 153.981 63.2457 152.096 63.2457C151.314 63.2457 150.923 63.2457 150.141 63.2457V90.3768C150.852 90.5187 151.243 90.5896 151.954 90.7315Z" fill="black"/>
<path d="M208.265 113.713C204.675 113.89 201.546 112.543 198.809 109.67C196.107 106.833 193.938 102.258 192.303 96.0512C190.668 89.8447 189.708 81.7586 189.352 71.7573C187.859 71.7573 187.148 71.7573 185.655 71.7219V111.798C180.714 111.372 178.225 111.053 173.319 110.237V16.2893C178.225 15.4736 180.714 15.1544 185.655 14.7288V55.0885C187.148 55.0885 187.859 55.0885 189.352 55.0531C189.992 40.5122 191.948 29.8371 195.289 23.0277C198.631 16.2183 202.933 12.8136 208.265 13.0619C212.033 13.2747 215.34 15.2608 218.184 18.8428C221.028 22.4603 223.232 27.922 224.831 35.1569C226.431 42.3919 227.213 51.5774 227.213 62.9264C227.213 74.2754 226.431 83.6737 224.831 91.0151C223.232 98.3564 221.028 103.96 218.184 107.719C215.34 111.443 212.033 113.5 208.265 113.713ZM208.265 96.3704C209.616 96.3349 210.754 95.3064 211.713 93.3913C212.673 91.4407 213.384 88.0714 213.846 83.3191C214.309 78.5667 214.558 71.9346 214.558 63.4584C214.558 54.9821 214.309 48.3855 213.846 43.6332C213.349 38.8808 212.638 35.4761 211.713 33.5255C210.754 31.5394 209.616 30.5109 208.265 30.44C206.843 30.4045 205.706 31.3621 204.781 33.3127C203.857 35.2633 203.181 38.5971 202.719 43.3494C202.257 48.1018 202.044 54.7693 202.044 63.352C202.044 71.9346 202.257 78.7795 202.719 83.5673C203.181 88.3552 203.857 91.7244 204.781 93.6041C205.706 95.5192 206.879 96.4413 208.265 96.3704Z" fill="black"/>
<path d="M231.516 109.351V17.1404C243.247 19.4457 249.078 21.148 260.276 25.6167V38.5261C253.735 36.8238 250.393 36.079 243.674 34.8377V51.8257C244.74 51.8966 245.274 51.9321 246.34 52.0385C251.673 52.464 255.796 54.8757 258.747 58.706C261.698 62.5363 263.155 68.0334 263.155 75.694C263.155 83.9574 261.662 90.3767 258.676 95.4128C255.69 100.449 251.424 104.208 245.842 105.804C240.154 107.471 237.275 108.145 231.516 109.28V109.351ZM245.7 90.9441C247.798 90.554 249.291 89.2773 250.144 87.2557C250.997 85.2342 251.424 82.1487 251.424 77.9637C251.424 73.7788 250.962 70.8352 250.002 69.3102C249.042 67.7851 247.513 67.0049 245.416 67.0758C244.705 67.0758 244.349 67.0758 243.674 67.1113V91.3697C244.492 91.2279 244.883 91.1569 245.7 90.9796V90.9441Z" fill="black"/>
<path d="M276.735 93.3205C272.718 95.4485 270.691 96.4415 266.567 98.2857V28.2768C271.082 30.2983 273.286 31.3978 277.659 33.7739V67.9627C281.889 53.9184 283.987 48.1375 288.075 39.9804C291.95 42.463 293.834 43.8107 297.532 46.6125V80.0919C293.443 83.1419 291.381 84.596 287.115 87.2914V59.5574C283.027 70.2325 280.965 77.1837 276.735 93.356V93.3205Z" fill="black"/>
<g clip-path="url(#clip0_65_12651)">
<path d="M93.8847 72.1586C93.8847 72.1586 93.8332 72.1586 93.8074 72.1483C89.0437 70.9071 81.1335 68.2807 78.6718 66.5761C78.5379 66.4834 78.5019 66.2928 78.5946 66.1589C78.6873 66.025 78.8727 65.9838 79.0117 66.0817C81.4116 67.7451 89.2343 70.3355 93.9516 71.5663C94.1113 71.6075 94.2091 71.7723 94.1679 71.932C94.1319 72.0659 94.0083 72.1586 93.8744 72.1586H93.8847Z" fill="#2C1230"/>
<path d="M96.3463 77.1179C96.3463 77.1179 96.3 77.1179 96.2742 77.1076C90.7432 75.7635 86.0826 74.3318 86.0362 74.3164C85.8766 74.27 85.789 74.1001 85.8354 73.9404C85.8869 73.7808 86.0568 73.6932 86.2113 73.7447C86.2577 73.7602 90.9029 75.1867 96.4184 76.5257C96.5781 76.5617 96.6759 76.7265 96.6399 76.8862C96.6038 77.0252 96.4854 77.1179 96.3463 77.1179Z" fill="#2C1230"/>
<path d="M270.495 168.992C270.495 168.992 270.47 168.992 270.459 168.992C265.67 168.385 262.039 166.155 261.885 166.057C261.746 165.969 261.699 165.784 261.787 165.64C261.874 165.496 262.06 165.46 262.199 165.542C262.235 165.568 265.881 167.803 270.531 168.39C270.696 168.41 270.815 168.56 270.794 168.725C270.774 168.879 270.645 168.987 270.495 168.987V168.992Z" fill="#2C1230"/>
<path d="M248.031 372.831C252.292 372.831 255.746 369.377 255.746 365.117C255.746 360.856 252.292 357.402 248.031 357.402C243.77 357.402 240.316 360.856 240.316 365.117C240.316 369.377 243.77 372.831 248.031 372.831Z" fill="#FFEA00"/>
<path d="M286.625 202.328C279.013 198.29 266.674 228.438 276.876 233.711C285.368 238.104 295.663 207.117 286.625 202.328Z" fill="#2C1230"/>
<path d="M284.477 228.113L273.024 224.205C273.024 224.205 273.127 220.182 274.507 216.047C275.939 211.762 277.056 209.924 277.056 209.924L292.666 216.82L284.472 228.113H284.477Z" fill="#FDD4B6"/>
<path d="M280.98 228.113C280.98 228.113 290.188 234.046 299.072 236.534C300.442 236.915 301.755 237.218 302.96 237.414C309.145 228.139 323.539 201.705 323.539 201.705C323.539 201.705 317.266 194.891 308.728 202.163C302.795 207.215 283.411 207.349 287.521 212.854C291.63 218.359 280.97 228.113 280.97 228.113H280.98Z" fill="#8989FF"/>
<path d="M299.072 236.832C299.02 236.832 298.969 236.817 298.917 236.791C298.773 236.709 298.727 236.523 298.809 236.379L320.531 199.614C320.614 199.464 320.799 199.423 320.943 199.506C321.087 199.588 321.134 199.773 321.051 199.918L299.329 236.683C299.272 236.781 299.175 236.832 299.072 236.832Z" fill="#2C1230"/>
<path d="M303.393 216.948C303.244 216.948 303.064 216.902 302.842 216.789C300.617 215.604 297.893 208.415 297.296 203.615C295.782 201.9 294.427 201.138 293.413 201.452C292.527 201.735 292.12 202.41 292.172 203.523C292.336 207.23 297.574 213.951 299.613 214.399C299.773 214.435 299.881 214.595 299.84 214.76C299.804 214.919 299.639 215.027 299.479 214.986C296.971 214.43 291.739 207.385 291.569 203.548C291.507 202.163 292.079 201.241 293.227 200.875C294.515 200.469 295.931 201.36 297.198 202.642C297.188 202.493 297.182 202.348 297.177 202.204C297.126 200.572 297.44 199.536 298.104 199.13C298.599 198.831 299.242 198.888 300.015 199.31C301.956 200.371 303.975 202.395 305.633 204.558C305.608 201.833 305.845 199.341 305.901 198.774C305.917 198.609 306.056 198.455 306.231 198.507C306.396 198.522 306.514 198.671 306.499 198.836C306.344 200.335 306.184 202.915 306.262 205.407C308.342 208.312 309.681 211.253 309.243 212.252C309.156 212.452 308.862 212.89 308.033 212.612C306.329 212.046 305.767 208.806 305.649 205.593C303.975 203.286 301.822 200.984 299.716 199.835C299.144 199.521 298.702 199.464 298.408 199.639C297.955 199.918 297.728 200.824 297.769 202.184C297.78 202.559 297.811 202.956 297.862 203.368C298.702 204.336 299.443 205.407 299.999 206.283C302.245 209.816 304.866 215.651 303.852 216.747C303.754 216.85 303.604 216.948 303.388 216.948H303.393ZM298.032 204.516C298.846 209.213 301.38 215.331 303.12 216.258C303.306 216.356 303.398 216.351 303.414 216.341C303.918 215.79 302.301 211.016 299.495 206.607C299 205.825 298.511 205.124 298.032 204.511V204.516ZM306.323 206.551C306.504 209.27 307.024 211.644 308.229 212.051C308.62 212.174 308.677 212.051 308.698 212.02C308.996 211.335 307.982 209.033 306.323 206.551Z" fill="#2C1230"/>
<path d="M76.7238 66.3906C74.5712 68.4608 86.1224 74.0279 86.1224 74.0279C86.1224 74.0279 90.8243 80.6867 97.8745 82.6437C104.925 84.6007 110.409 83.8179 110.409 83.8179L112.758 78.9203L98.4616 73.0443C98.4616 73.0443 90.9582 68.9501 87.6931 66.3854C84.1912 63.6457 83.1561 63.898 82.605 64.6705C82.054 65.443 83.1561 66.6584 83.1561 66.6584C83.1561 66.6584 80.612 64.8868 79.5048 65.2216C78.3976 65.5511 78.8404 66.3288 78.8404 66.3288C78.8404 66.3288 77.8053 65.3452 76.7187 66.3906H76.7238Z" fill="#FDD4B6"/>
<path d="M105.209 76.1497C105.209 76.1497 97.2111 73.3585 93.7813 72.1431C91.1445 71.2058 86.2315 69.2797 82.9768 66.9056C82.8429 66.8078 82.812 66.6224 82.9098 66.4885C83.0077 66.3546 83.1982 66.3237 83.3321 66.4215C86.6383 68.8368 91.881 70.8299 93.9821 71.5766C97.412 72.792 105.405 75.5832 105.405 75.5832L105.209 76.1497Z" fill="#2C1230"/>
<path d="M144.591 159.115C141.212 169.404 123.059 239.747 188.241 321.831C225.058 318.211 249.201 284.412 257.044 266.305C246.178 245.783 194.4 196.895 194.4 196.895C194.4 196.895 230.903 207.153 276.866 233.711C283.597 217.417 286.615 202.328 286.615 202.328C286.615 202.328 235.028 176.969 186.325 172.932C182.293 169.188 178.91 167.252 178.91 167.252L144.58 159.115H144.591Z" fill="white"/>
<path d="M254.067 158.208C251.806 161.983 250.148 161.525 250.148 161.525C250.148 161.525 234.59 156.236 226.293 149.912C208.016 149.454 196.522 145.514 196.522 145.514C196.522 145.514 195.728 147.728 194.142 150.782C192.942 153.115 191.279 155.953 189.188 158.672C184.862 164.249 178.682 169.348 170.721 168.627C153.793 167.113 144.585 159.13 144.585 159.13C144.585 159.13 146.413 153.553 149.683 146.698C150.574 144.824 151.558 142.851 152.665 140.879C154.637 137.32 156.944 133.715 159.54 130.589C146.557 124.986 136.144 111.571 136.144 111.571C136.144 111.571 113.659 99.5972 110.415 83.823C111.641 81.2738 112.748 78.9409 112.748 78.9409C112.748 78.9409 125.659 84.3998 145.934 94.4731C147.52 95.2661 149.178 96.085 150.862 96.9244C174.14 108.707 205.616 125.877 238.2 147.419C239.642 148.382 241.11 149.345 242.577 150.329C246.398 152.904 250.225 155.525 254.072 158.219L254.067 158.208Z" fill="#FF4930"/>
<path d="M254.072 158.208C254.072 158.208 263.857 163.843 275.156 166.505C276.994 166.871 279.317 169.008 270.495 168.694C270.403 171.227 263.543 170.44 260.02 169.204C254.783 167.365 250.143 161.53 250.143 161.53C250.143 161.53 251.791 162.004 254.067 158.208H254.072Z" fill="#FDD4B6"/>
<path d="M136.134 111.849C136.046 111.849 135.964 111.813 135.902 111.741C134.11 109.598 132.57 104.546 132.508 104.335C132.462 104.176 132.549 104.011 132.709 103.959C132.874 103.923 133.039 104.006 133.085 104.16C133.1 104.212 134.65 109.305 136.365 111.355C136.474 111.483 136.458 111.674 136.329 111.777C136.273 111.823 136.206 111.849 136.139 111.849H136.134Z" fill="#2C1230"/>
<path d="M227.35 150.226C226.598 150.226 225.779 150.205 224.888 150.159C224.723 150.149 224.595 150.01 224.605 149.84C224.615 149.68 224.749 149.557 224.904 149.557H224.919C229.858 149.824 232.762 149.186 232.788 149.181C232.958 149.145 233.107 149.248 233.149 149.407C233.185 149.567 233.082 149.727 232.922 149.768C232.824 149.788 230.857 150.221 227.345 150.221L227.35 150.226Z" fill="#2C1230"/>
<path d="M194.405 196.895C186.505 189.288 173.651 174.374 173.651 174.374C173.651 174.374 217.584 201.174 223.636 207.462C218.851 205.722 194.405 196.9 194.405 196.9V196.895Z" fill="#2C1230"/>
<path d="M235.322 297.709C235.322 297.709 240.178 307.515 250.143 314.143C260.108 320.771 266.267 333.45 266.267 333.45L216.756 350.017C216.756 350.017 213.172 342.112 213.172 326.137C213.172 317.82 211.066 315.348 211.066 315.348C211.066 315.348 226.999 307.144 235.322 297.709Z" fill="#8989FF"/>
<path d="M228.492 326.878C228.389 326.878 228.291 326.827 228.235 326.734C228.147 326.595 228.194 326.41 228.338 326.322C242.134 317.933 255.885 323.531 256.019 323.588C256.173 323.649 256.245 323.83 256.178 323.979C256.111 324.128 255.936 324.206 255.787 324.139C255.653 324.077 242.176 318.608 228.652 326.832C228.6 326.863 228.549 326.878 228.497 326.878H228.492Z" fill="#2C1230"/>
<path d="M215.35 345.964C215.226 345.964 215.108 345.887 215.067 345.763C215.015 345.603 215.093 345.434 215.252 345.382L263.563 328.604C263.718 328.552 263.893 328.629 263.945 328.789C263.996 328.949 263.919 329.119 263.759 329.17L215.448 345.949C215.417 345.959 215.381 345.964 215.35 345.964Z" fill="#2C1230"/>
<path d="M180.526 362.665L299.917 322.398C299.917 322.398 302.106 330.324 291.821 334.032C281.537 337.74 192.912 367.068 192.912 367.068C192.912 367.068 185.347 369.015 180.532 362.67L180.526 362.665Z" fill="#2C1230"/>
<path d="M190.234 367.63C187.514 367.63 183.338 366.868 180.289 362.84C180.232 362.763 180.212 362.665 180.243 362.572C180.274 362.48 180.341 362.408 180.433 362.377L299.824 322.11C299.901 322.084 299.989 322.089 300.061 322.13C300.133 322.171 300.189 322.238 300.21 322.316C300.231 322.398 302.352 330.555 291.929 334.31C281.758 337.982 193.895 367.058 193.009 367.352C192.973 367.362 191.866 367.635 190.239 367.635L190.234 367.63ZM181.026 362.809C185.671 368.526 192.762 366.79 192.834 366.77C193.699 366.481 281.552 337.41 291.718 333.743C300.586 330.545 299.978 324.273 299.695 322.784L181.026 362.809Z" fill="#2C1230"/>
<path d="M248.031 380.535C256.547 380.535 263.45 373.632 263.45 365.116C263.45 356.601 256.547 349.698 248.031 349.698C239.516 349.698 232.612 356.601 232.612 365.116C232.612 373.632 239.516 380.535 248.031 380.535Z" fill="#2C1230"/>
<path d="M248.031 380.829C239.363 380.829 232.313 373.779 232.313 365.111C232.313 356.444 239.363 349.394 248.031 349.394C256.698 349.394 263.748 356.444 263.748 365.111C263.748 373.779 256.698 380.829 248.031 380.829ZM248.031 349.996C239.693 349.996 232.91 356.779 232.91 365.116C232.91 373.454 239.693 380.231 248.031 380.231C256.368 380.231 263.146 373.449 263.146 365.116C263.146 356.784 256.363 349.996 248.031 349.996Z" fill="#2C1230"/>
<path d="M196.259 111.545L211.029 116.128L196.8 125.321C196.8 125.321 192.412 127.438 186.335 124.667C182.298 122.823 180.686 119.888 180.686 119.888L196.259 111.545Z" fill="#FDD4B6"/>
<path d="M159.541 130.873C159.474 130.873 159.412 130.852 159.355 130.811C159.221 130.708 159.201 130.523 159.299 130.389C160.864 128.36 164.593 123.668 164.629 123.622C164.732 123.493 164.922 123.472 165.051 123.575C165.18 123.678 165.2 123.869 165.097 123.998C165.061 124.044 161.338 128.73 159.772 130.754C159.711 130.832 159.623 130.873 159.536 130.873H159.541Z" fill="#2C1230"/>
<path d="M215.082 101.632C228.359 102.471 248.582 111.319 247.074 116.448C245.565 121.577 235.151 114.79 233.946 116.448C232.741 118.106 242.397 119.013 242.248 121.124C242.099 123.235 234.4 120.218 233.648 121.881C232.891 123.539 248.438 131.99 243.304 137.12C238.175 142.249 216.478 127.762 210.576 119.497C204.674 111.231 202.712 100.849 215.087 101.632H215.082Z" fill="#2C1230"/>
<path d="M240.137 138.495C239.89 138.495 239.632 138.484 239.364 138.464C231.351 137.799 215.469 126.866 210.329 119.672C206.987 114.99 204.206 108.563 206.431 104.557C207.775 102.136 210.705 101.055 215.103 101.328C226.489 102.049 243.026 108.604 246.703 113.852C247.383 114.82 247.604 115.722 247.367 116.53C247.125 117.344 246.662 117.936 245.987 118.291C244.087 119.28 240.945 118.266 238.169 117.364C236.46 116.803 234.513 116.175 234.189 116.623C234.127 116.705 234.142 116.746 234.147 116.767C234.307 117.246 236.182 117.833 237.691 118.297C240.235 119.09 242.64 119.836 242.547 121.145C242.526 121.428 242.403 121.665 242.192 121.84C241.46 122.437 239.704 122.19 237.845 121.927C236.218 121.701 234.189 121.417 233.921 122.005C233.828 122.396 235.713 123.987 237.093 125.151C240.224 127.793 244.509 131.408 244.643 134.601C244.684 135.621 244.308 136.543 243.52 137.331C242.748 138.103 241.615 138.489 240.142 138.489L240.137 138.495ZM213.795 101.889C210.344 101.889 208.048 102.883 206.956 104.85C205.236 107.95 206.75 113.631 210.818 119.327C215.886 126.423 231.531 137.212 239.411 137.866C241.084 138.01 242.32 137.681 243.088 136.908C243.762 136.234 244.076 135.492 244.035 134.632C243.912 131.697 239.74 128.179 236.697 125.615C234.147 123.467 233.035 122.489 233.365 121.763C233.818 120.769 235.718 121.031 237.917 121.34C239.488 121.557 241.27 121.814 241.8 121.376C241.888 121.309 241.929 121.227 241.934 121.108C241.996 120.274 239.395 119.466 237.5 118.879C235.219 118.168 233.813 117.699 233.565 116.963C233.514 116.803 233.488 116.551 233.689 116.278C234.271 115.48 235.981 116.031 238.339 116.803C240.868 117.627 244.015 118.652 245.688 117.766C246.224 117.483 246.574 117.03 246.77 116.371C246.955 115.747 246.76 115.016 246.193 114.208C242.67 109.171 226.077 102.636 215.051 101.94C214.614 101.915 214.186 101.899 213.779 101.899L213.795 101.889Z" fill="#2C1230"/>
<path d="M207.146 115.196C207.146 115.196 203.675 115.088 199.39 113.579C195.105 112.07 192.747 107.693 195.77 105.427C198.788 103.161 210.406 99.5407 217.801 103.161C225.196 106.781 222.446 113.59 213.125 114.177C217.652 116.741 215.674 119.708 212.219 119.641C208.763 119.574 205.549 118.019 207.151 115.191L207.146 115.196Z" fill="#FDD4B6"/>
<path d="M212.822 109.351C212.786 109.351 212.75 109.346 212.714 109.331C212.559 109.274 212.482 109.099 212.538 108.944C212.904 107.966 213.718 105.046 212.683 104.51C212.193 104.258 211.441 104.371 210.566 104.5C209.103 104.716 207.286 104.984 205.323 103.897C205.375 105.525 205.947 106.318 205.957 106.323C206.055 106.457 206.029 106.642 205.895 106.745C205.766 106.843 205.581 106.823 205.478 106.689C205.447 106.648 204.716 105.669 204.721 103.712C204.721 103.614 204.721 103.367 204.937 103.243C205.092 103.156 205.277 103.176 205.493 103.3C207.327 104.371 209.078 104.114 210.484 103.908C211.457 103.764 212.302 103.64 212.966 103.98C214.665 104.855 213.275 108.723 213.11 109.161C213.064 109.279 212.95 109.356 212.827 109.356L212.822 109.351Z" fill="#2C1230"/>
<path d="M210.432 109.351C210.38 109.351 210.329 109.341 210.282 109.31C208.403 108.229 208.459 106.792 208.459 106.73C208.47 106.57 208.604 106.447 208.758 106.447H208.774C208.938 106.457 209.067 106.596 209.057 106.761C209.057 106.823 209.046 107.909 210.576 108.79C210.72 108.872 210.767 109.058 210.684 109.202C210.628 109.3 210.525 109.351 210.422 109.351H210.432Z" fill="#2C1230"/>
<path d="M200.106 106.308C200.77 106.385 202.367 106.812 202.109 108.1C201.852 109.387 199.158 108.615 198.159 107.641C197.448 106.946 198.159 106.086 200.106 106.308Z" fill="#2C1230"/>
<path d="M212.327 119.945H212.208C210.143 119.909 207.614 119.311 206.729 117.751C206.451 117.267 206.239 116.494 206.677 115.469C205.591 115.387 202.712 115.068 199.292 113.868C198.03 113.42 196.882 112.719 195.981 111.839C195.862 111.72 195.862 111.53 195.981 111.411C196.099 111.293 196.29 111.288 196.408 111.406C197.248 112.23 198.319 112.884 199.498 113.301C203.68 114.774 207.13 114.903 207.161 114.903C207.269 114.903 207.362 114.965 207.414 115.057C207.465 115.15 207.465 115.263 207.414 115.351C206.966 116.144 206.909 116.855 207.254 117.457C207.887 118.559 209.839 119.301 212.229 119.347H212.332C213.887 119.347 215.144 118.688 215.411 117.72C215.695 116.68 214.809 115.485 212.981 114.45C212.836 114.367 212.785 114.182 212.867 114.043C212.95 113.893 213.13 113.842 213.279 113.929C215.37 115.109 216.359 116.551 215.993 117.879C215.653 119.131 214.191 119.95 212.337 119.95L212.327 119.945Z" fill="#2C1230"/>
<path d="M211.034 102.698C210.9 102.698 210.777 102.605 210.741 102.471C210.73 102.43 210.499 101.657 209.144 101.147C208.99 101.091 208.912 100.916 208.969 100.761C209.026 100.607 209.201 100.535 209.355 100.586C211.034 101.22 211.312 102.28 211.323 102.327C211.364 102.486 211.261 102.651 211.101 102.687C211.075 102.692 211.055 102.698 211.029 102.698H211.034Z" fill="#2C1230"/>
<path d="M207.868 103.023C207.811 103.023 207.749 103.007 207.703 102.971C207.677 102.956 207.11 102.574 206.703 102.002C206.606 101.869 206.636 101.678 206.77 101.58C206.904 101.482 207.095 101.518 207.188 101.647C207.533 102.126 208.028 102.466 208.033 102.471C208.172 102.564 208.208 102.75 208.115 102.889C208.058 102.976 207.961 103.023 207.868 103.023Z" fill="#2C1230"/>
<path d="M160.647 117.941C161.921 117.941 162.954 116.908 162.954 115.634C162.954 114.36 161.921 113.327 160.647 113.327C159.373 113.327 158.34 114.36 158.34 115.634C158.34 116.908 159.373 117.941 160.647 117.941Z" fill="#FFEA00"/>
<path d="M150.862 96.9142C150.404 97.7331 149.518 98.2841 148.483 98.2841C146.969 98.2841 145.718 97.0584 145.718 95.5186C145.718 95.1581 145.79 94.7976 145.934 94.4629C147.52 95.256 149.178 96.0748 150.862 96.9142Z" fill="#FFEA00"/>
<path d="M242.573 150.319C242.094 150.705 241.491 150.921 240.842 150.921C239.328 150.921 238.077 149.696 238.077 148.156C238.077 147.893 238.123 147.651 238.195 147.409C239.637 148.372 241.105 149.335 242.573 150.319Z" fill="#FFEA00"/>
<path d="M167.173 155.701C168.447 155.701 169.48 154.668 169.48 153.393C169.48 152.119 168.447 151.086 167.173 151.086C165.898 151.086 164.865 152.119 164.865 153.393C164.865 154.668 165.898 155.701 167.173 155.701Z" fill="#FFEA00"/>
<path d="M215.757 143.181C217.031 143.181 218.064 142.148 218.064 140.874C218.064 139.6 217.031 138.567 215.757 138.567C214.483 138.567 213.45 139.6 213.45 140.874C213.45 142.148 214.483 143.181 215.757 143.181Z" fill="#FFEA00"/>
<path d="M186.335 140.204C187.609 140.204 188.642 139.171 188.642 137.897C188.642 136.623 187.609 135.59 186.335 135.59C185.061 135.59 184.028 136.623 184.028 137.897C184.028 139.171 185.061 140.204 186.335 140.204Z" fill="#FFEA00"/>
<path d="M156.223 144.525C156.223 146.523 154.586 148.156 152.593 148.156C151.393 148.156 150.332 147.579 149.683 146.688C150.574 144.813 151.558 142.841 152.665 140.869C154.637 140.915 156.223 142.527 156.223 144.525Z" fill="#FFEA00"/>
<path d="M194.142 150.777C192.943 153.11 191.279 155.948 189.188 158.667C187.576 157.946 186.448 156.308 186.448 154.413C186.448 151.817 188.565 149.701 191.161 149.701C192.288 149.701 193.349 150.108 194.142 150.782V150.777Z" fill="#FFEA00"/>
<path d="M143.617 179.843C143.468 179.843 143.339 179.735 143.318 179.586C143.298 179.421 143.411 179.266 143.576 179.246C153.752 177.825 155.92 171.531 155.941 171.464C155.992 171.305 156.162 171.227 156.317 171.274C156.476 171.325 156.559 171.495 156.512 171.65C156.425 171.923 154.226 178.36 143.658 179.838C143.643 179.838 143.632 179.838 143.617 179.838V179.843Z" fill="#2C1230"/>
<path d="M183.899 173.38C181.999 173.38 179.506 173.097 178.311 171.758C178.203 171.634 178.214 171.444 178.337 171.336C178.461 171.222 178.651 171.227 178.765 171.361C180.588 173.396 186.237 172.649 186.299 172.633C186.479 172.608 186.618 172.726 186.639 172.891C186.66 173.056 186.546 173.21 186.381 173.231C186.278 173.246 185.238 173.385 183.904 173.385L183.899 173.38Z" fill="#2C1230"/>
<path d="M219.475 324.479C218.666 324.479 218.033 324.319 217.636 323.943C216.931 323.279 216.982 322.14 217.796 320.467C218.393 319.231 219.233 318.041 220.232 316.908C216.936 317.722 214.227 317.938 213.182 317.083C212.723 316.707 212.358 315.966 213.197 314.544C216.653 308.689 226.025 301.855 230.496 301.026C231.52 300.835 232.298 300.943 232.808 301.35C232.937 301.453 232.957 301.644 232.854 301.773C232.751 301.901 232.561 301.927 232.432 301.819C232.071 301.531 231.438 301.458 230.604 301.618C226.247 302.421 217.101 309.111 213.712 314.848C212.96 316.125 213.413 316.496 213.563 316.615C214.428 317.315 217.389 316.996 221.02 316.058C226.54 310.424 235.857 306.48 238.421 306.614C238.89 306.639 239.183 306.799 239.286 307.092C239.436 307.515 239.127 308.045 238.287 308.807C235.543 311.29 227.612 314.9 221.303 316.63C220.062 317.923 219.032 319.298 218.342 320.735C217.672 322.125 217.574 323.057 218.053 323.51C220.299 325.632 233.596 318.942 238.529 316.187C238.679 316.105 238.859 316.161 238.941 316.306C239.024 316.45 238.967 316.63 238.823 316.713C237.216 317.609 224.723 324.484 219.48 324.484L219.475 324.479ZM238.272 307.211C238.169 307.211 238.045 307.211 237.891 307.232C234.888 307.561 227.246 310.981 222.189 315.739C227.869 314.127 234.734 311.202 237.875 308.354C238.751 307.561 238.715 307.288 238.715 307.288C238.715 307.288 238.632 307.211 238.277 307.211H238.272Z" fill="#2C1230"/>
</g>
<defs>
<radialGradient id="paint0_radial_65_12651" cx="0" cy="0" r="1" gradientUnits="userSpaceOnUse" gradientTransform="translate(200 200.733) rotate(90) scale(368.704)">
<stop stop-color="#FFEA00"/>
<stop offset="1" stop-color="white"/>
</radialGradient>
<clipPath id="clip0_65_12651">
<rect width="247.088" height="316.678" fill="white" transform="translate(76.4562 64.1505)"/>
</clipPath>
</defs>
</svg>
