<svg width="401" height="405" viewBox="0 0 401 405" fill="none" xmlns="http://www.w3.org/2000/svg">
<path d="M0.536621 200C0.536621 89.5431 90.0797 0 200.537 0C310.994 0 400.537 89.5431 400.537 200C400.537 310.457 310.994 400 200.537 400C90.0797 400 0.536621 310.457 0.536621 200Z" fill="url(#paint0_radial_215_58355)"/>
<path d="M103.005 45.8436C107.164 42.7226 109.262 41.2331 113.599 38.5022V58.5402C117.083 58.1501 118.825 57.9728 122.415 57.6536V33.3243C126.895 30.8417 129.205 29.7068 133.827 27.6498V97.5523C129.205 95.4953 126.895 94.3604 122.415 91.8778V67.6194C118.825 67.3002 117.083 67.1229 113.599 66.7328V86.6999C109.262 83.969 107.129 82.5149 103.005 79.394V45.9145V45.8436Z" fill="black"/>
<path d="M138.875 99.6448V25.4509C143.532 23.5358 145.914 22.6846 150.678 21.1596V48.1843C151.353 48.1134 151.673 48.0779 152.349 48.007C158.001 47.4041 162.445 49.2838 165.573 53.8943C168.702 58.5048 170.301 66.1653 170.301 76.5922C170.301 87.6929 168.737 95.779 165.609 100.319C162.48 104.858 158.25 106.277 152.917 104.681C147.229 102.943 144.421 101.95 138.875 99.7157V99.6448ZM152.491 89.9982C154.553 90.4238 156.01 89.3598 156.863 86.7708C157.717 84.2173 158.143 80.7062 158.143 76.3439C158.143 71.9817 157.681 68.7189 156.792 66.2363C155.904 63.7537 154.517 62.5124 152.633 62.5124C151.851 62.5124 151.46 62.5124 150.678 62.5124V89.6435C151.389 89.7854 151.78 89.8563 152.491 89.9982Z" fill="black"/>
<path d="M208.802 112.98C205.211 113.157 202.083 111.809 199.345 108.937C196.644 106.099 194.475 101.524 192.84 95.3179C191.204 89.1115 190.245 81.0253 189.889 71.0241C188.396 71.0241 187.685 71.0241 186.192 70.9886V111.065C181.25 110.639 178.762 110.32 173.856 109.504V15.556C178.762 14.7403 181.25 14.4211 186.192 13.9955V54.3553C187.685 54.3553 188.396 54.3553 189.889 54.3198C190.529 39.7789 192.484 29.1038 195.826 22.2945C199.168 15.4851 203.469 12.0804 208.802 12.3286C212.57 12.5414 215.876 14.5275 218.72 18.1095C221.564 21.727 223.768 27.1887 225.368 34.4237C226.968 41.6586 227.75 50.8442 227.75 62.1931C227.75 73.5421 226.968 82.9405 225.368 90.2818C223.768 97.6232 221.564 103.227 218.72 106.986C215.876 110.71 212.57 112.767 208.802 112.98ZM208.802 95.6371C210.153 95.6017 211.29 94.5732 212.25 92.658C213.21 90.7074 213.921 87.3382 214.383 82.5858C214.845 77.8334 215.094 71.2014 215.094 62.7251C215.094 54.2489 214.845 47.6523 214.383 42.8999C213.885 38.1475 213.174 34.7428 212.25 32.7922C211.29 30.8062 210.153 29.7777 208.802 29.7067C207.38 29.6713 206.242 30.6288 205.318 32.5794C204.394 34.5301 203.718 37.8638 203.256 42.6162C202.794 47.3686 202.58 54.0361 202.58 62.6187C202.58 71.2014 202.794 78.0462 203.256 82.8341C203.718 87.6219 204.394 90.9911 205.318 92.8708C206.242 94.7859 207.415 95.708 208.802 95.6371Z" fill="black"/>
<path d="M232.052 108.617V16.4071C243.784 18.7124 249.614 20.4147 260.812 24.8834V37.7928C254.271 36.0905 250.929 35.3457 244.21 34.1044V51.0924C245.277 51.1633 245.81 51.1988 246.877 51.3052C252.209 51.7308 256.333 54.1424 259.284 57.9727C262.234 61.803 263.692 67.3001 263.692 74.9607C263.692 83.2241 262.199 89.6434 259.213 94.6795C256.226 99.7156 251.96 103.475 246.379 105.071C240.691 106.738 237.811 107.412 232.052 108.547V108.617ZM246.237 90.2108C248.334 89.8207 249.827 88.544 250.681 86.5224C251.534 84.5009 251.96 81.4154 251.96 77.2305C251.96 73.0455 251.498 70.1019 250.538 68.5769C249.578 67.0519 248.05 66.2716 245.952 66.3425C245.241 66.3425 244.886 66.3425 244.21 66.378V90.6364C245.028 90.4946 245.419 90.4236 246.237 90.2463V90.2108Z" fill="black"/>
<path d="M277.271 92.5873C273.254 94.7152 271.228 95.7082 267.104 97.5524V27.5435C271.619 29.5651 273.823 30.6645 278.196 33.0407V67.2294C282.426 53.1851 284.524 47.4042 288.612 39.2471C292.487 41.7297 294.371 43.0774 298.068 45.8792V79.3586C293.98 82.4087 291.918 83.8628 287.652 86.5581V58.8241C283.564 69.4992 281.502 76.4505 277.271 92.6227V92.5873Z" fill="black"/>
<g clip-path="url(#clip0_215_58355)">
<path d="M94.4213 71.4253C94.4213 71.4253 94.3698 71.4253 94.344 71.415C89.5804 70.1739 81.6701 67.5474 79.2084 65.8428C79.0745 65.7501 79.0385 65.5596 79.1312 65.4257C79.2239 65.2918 79.4093 65.2506 79.5483 65.3484C81.9482 67.0118 89.7709 69.6022 94.4882 70.8331C94.6479 70.8743 94.7457 71.0391 94.7045 71.1987C94.6685 71.3326 94.5449 71.4253 94.411 71.4253H94.4213Z" fill="#2C1230"/>
<path d="M96.8827 76.3847C96.8827 76.3847 96.8364 76.3847 96.8106 76.3744C91.2796 75.0302 86.6189 73.5986 86.5726 73.5831C86.4129 73.5368 86.3254 73.3668 86.3717 73.2072C86.4232 73.0475 86.5932 72.96 86.7477 73.0115C86.794 73.0269 91.4393 74.4534 96.9548 75.7924C97.1145 75.8285 97.2123 75.9933 97.1763 76.1529C97.1402 76.292 97.0218 76.3847 96.8827 76.3847Z" fill="#2C1230"/>
<path d="M271.032 168.259C271.032 168.259 271.006 168.259 270.996 168.259C266.206 167.651 262.576 165.422 262.421 165.324C262.282 165.236 262.236 165.051 262.323 164.907C262.411 164.762 262.596 164.726 262.735 164.809C262.771 164.834 266.417 167.07 271.068 167.657C271.233 167.677 271.351 167.827 271.33 167.991C271.31 168.146 271.181 168.254 271.032 168.254V168.259Z" fill="#2C1230"/>
<path d="M248.568 372.098C252.828 372.098 256.282 368.644 256.282 364.383C256.282 360.123 252.828 356.669 248.568 356.669C244.307 356.669 240.853 360.123 240.853 364.383C240.853 368.644 244.307 372.098 248.568 372.098Z" fill="#FFEA00"/>
<path d="M287.161 201.594C279.55 197.557 267.211 227.705 277.413 232.978C285.905 237.371 296.199 206.384 287.161 201.594Z" fill="#2C1230"/>
<path d="M285.014 227.38L273.561 223.471C273.561 223.471 273.664 219.449 275.044 215.314C276.475 211.029 277.593 209.191 277.593 209.191L293.202 216.086L285.009 227.38H285.014Z" fill="#FDD4B6"/>
<path d="M281.517 227.38C281.517 227.38 290.725 233.313 299.608 235.8C300.978 236.181 302.291 236.485 303.496 236.681C309.682 227.406 324.076 200.971 324.076 200.971C324.076 200.971 317.803 194.158 309.264 201.43C303.332 206.482 283.947 206.616 288.057 212.121C292.167 217.626 281.506 227.38 281.506 227.38H281.517Z" fill="#8989FF"/>
<path d="M299.608 236.099C299.556 236.099 299.505 236.083 299.453 236.058C299.309 235.975 299.263 235.79 299.345 235.646L321.068 198.88C321.15 198.731 321.335 198.69 321.48 198.772C321.624 198.855 321.67 199.04 321.588 199.184L299.865 235.949C299.809 236.047 299.711 236.099 299.608 236.099Z" fill="#2C1230"/>
<path d="M303.93 216.215C303.78 216.215 303.6 216.169 303.379 216.055C301.154 214.871 298.43 207.682 297.832 202.882C296.318 201.167 294.964 200.405 293.949 200.719C293.063 201.002 292.657 201.677 292.708 202.789C292.873 206.497 298.11 213.218 300.15 213.666C300.309 213.702 300.418 213.862 300.376 214.026C300.34 214.186 300.176 214.294 300.016 214.253C297.508 213.697 292.276 206.652 292.106 202.815C292.044 201.43 292.615 200.508 293.764 200.142C295.051 199.735 296.468 200.626 297.734 201.909C297.724 201.759 297.719 201.615 297.714 201.471C297.662 199.838 297.977 198.803 298.641 198.396C299.135 198.098 299.779 198.154 300.551 198.577C302.493 199.638 304.512 201.661 306.17 203.824C306.144 201.1 306.381 198.608 306.438 198.041C306.453 197.876 306.592 197.722 306.767 197.773C306.932 197.789 307.051 197.938 307.035 198.103C306.881 199.601 306.721 202.182 306.798 204.674C308.879 207.579 310.218 210.519 309.78 211.518C309.693 211.719 309.399 212.157 308.57 211.879C306.865 211.312 306.304 208.073 306.185 204.86C304.512 202.552 302.359 200.25 300.253 199.102C299.681 198.788 299.238 198.731 298.945 198.906C298.491 199.184 298.265 200.091 298.306 201.45C298.316 201.826 298.347 202.223 298.399 202.635C299.238 203.603 299.98 204.674 300.536 205.55C302.781 209.082 305.403 214.917 304.388 216.014C304.29 216.117 304.141 216.215 303.925 216.215H303.93ZM298.569 203.783C299.382 208.48 301.916 214.598 303.657 215.525C303.842 215.623 303.935 215.618 303.95 215.607C304.455 215.056 302.838 210.282 300.031 205.874C299.537 205.091 299.048 204.391 298.569 203.778V203.783ZM306.86 205.817C307.04 208.537 307.56 210.911 308.766 211.318C309.157 211.441 309.214 211.318 309.234 211.287C309.533 210.602 308.518 208.3 306.86 205.817Z" fill="#2C1230"/>
<path d="M77.2606 65.6573C75.1079 67.7276 86.6592 73.2946 86.6592 73.2946C86.6592 73.2946 91.361 79.9535 98.4113 81.9104C105.461 83.8674 110.946 83.0846 110.946 83.0846L113.295 78.187L98.9984 72.311C98.9984 72.311 91.4949 68.2168 88.2299 65.6522C84.7279 62.9124 83.6928 63.1647 83.1418 63.9372C82.5907 64.7097 83.6928 65.9251 83.6928 65.9251C83.6928 65.9251 81.1488 64.1535 80.0415 64.4883C78.9343 64.8179 79.3772 65.5955 79.3772 65.5955C79.3772 65.5955 78.3421 64.6119 77.2554 65.6573H77.2606Z" fill="#FDD4B6"/>
<path d="M105.746 75.4164C105.746 75.4164 97.7477 72.6252 94.3179 71.4098C91.6811 70.4725 86.7681 68.5465 83.5134 66.1723C83.3795 66.0745 83.3486 65.8891 83.4464 65.7552C83.5443 65.6213 83.7348 65.5904 83.8687 65.6883C87.175 68.1036 92.4176 70.0966 94.5187 70.8433C97.9486 72.0587 105.941 74.85 105.941 74.85L105.746 75.4164Z" fill="#2C1230"/>
<path d="M145.127 158.381C141.749 168.671 123.595 239.014 188.778 321.098C225.595 317.478 249.737 283.679 257.581 265.572C246.714 245.049 194.937 196.161 194.937 196.161C194.937 196.161 231.44 206.42 277.403 232.978C284.134 216.684 287.151 201.594 287.151 201.594C287.151 201.594 235.565 176.236 186.862 172.199C182.83 168.455 179.446 166.518 179.446 166.518L145.117 158.381H145.127Z" fill="white"/>
<path d="M254.603 157.475C252.343 161.25 250.684 160.792 250.684 160.792C250.684 160.792 235.126 155.503 226.83 149.179C208.553 148.72 197.058 144.781 197.058 144.781C197.058 144.781 196.265 146.995 194.679 150.049C193.479 152.382 191.816 155.219 189.725 157.939C185.399 163.516 179.219 168.614 171.257 167.893C154.329 166.379 145.121 158.397 145.121 158.397C145.121 158.397 146.95 152.82 150.22 145.965C151.111 144.09 152.094 142.118 153.202 140.146C155.174 136.587 157.481 132.982 160.077 129.856C147.094 124.253 136.681 110.837 136.681 110.837C136.681 110.837 114.196 98.8639 110.952 83.0898C112.177 80.5406 113.285 78.2076 113.285 78.2076C113.285 78.2076 126.195 83.6666 146.471 93.7398C148.057 94.5329 149.715 95.3517 151.399 96.1911C174.677 107.974 206.153 125.144 238.736 146.686C240.178 147.649 241.646 148.612 243.114 149.596C246.935 152.171 250.762 154.792 254.608 157.485L254.603 157.475Z" fill="#FF4930"/>
<path d="M254.609 157.475C254.609 157.475 264.393 163.109 275.692 165.772C277.531 166.137 279.853 168.275 271.032 167.96C270.939 170.494 264.079 169.706 260.557 168.47C255.319 166.632 250.679 160.797 250.679 160.797C250.679 160.797 252.327 161.271 254.603 157.475H254.609Z" fill="#FDD4B6"/>
<path d="M136.67 111.116C136.583 111.116 136.5 111.08 136.438 111.008C134.646 108.865 133.106 103.813 133.045 103.602C132.998 103.442 133.086 103.278 133.245 103.226C133.41 103.19 133.575 103.272 133.621 103.427C133.637 103.478 135.187 108.572 136.902 110.621C137.01 110.75 136.995 110.941 136.866 111.044C136.809 111.09 136.742 111.116 136.675 111.116H136.67Z" fill="#2C1230"/>
<path d="M227.886 149.493C227.134 149.493 226.315 149.472 225.424 149.426C225.26 149.416 225.131 149.277 225.141 149.107C225.152 148.947 225.285 148.823 225.44 148.823H225.455C230.394 149.091 233.299 148.453 233.324 148.447C233.494 148.411 233.644 148.514 233.685 148.674C233.721 148.834 233.618 148.993 233.458 149.034C233.36 149.055 231.393 149.488 227.881 149.488L227.886 149.493Z" fill="#2C1230"/>
<path d="M194.941 196.161C187.041 188.555 174.187 173.641 174.187 173.641C174.187 173.641 218.121 200.441 224.172 206.729C219.388 204.988 194.941 196.166 194.941 196.166V196.161Z" fill="#2C1230"/>
<path d="M235.858 296.976C235.858 296.976 240.715 306.781 250.68 313.409C260.645 320.037 266.804 332.716 266.804 332.716L217.293 349.284C217.293 349.284 213.708 341.379 213.708 325.403C213.708 317.086 211.602 314.614 211.602 314.614C211.602 314.614 227.536 306.411 235.858 296.976Z" fill="#8989FF"/>
<path d="M229.029 326.145C228.926 326.145 228.828 326.094 228.771 326.001C228.684 325.862 228.73 325.676 228.874 325.589C242.671 317.2 256.421 322.798 256.555 322.854C256.71 322.916 256.782 323.096 256.715 323.246C256.648 323.395 256.473 323.472 256.323 323.405C256.189 323.344 242.712 317.874 229.188 326.099C229.137 326.13 229.085 326.145 229.034 326.145H229.029Z" fill="#2C1230"/>
<path d="M215.886 345.231C215.763 345.231 215.644 345.153 215.603 345.03C215.552 344.87 215.629 344.7 215.789 344.649L264.1 327.87C264.254 327.819 264.43 327.896 264.481 328.056C264.533 328.215 264.455 328.385 264.296 328.437L215.984 345.215C215.953 345.226 215.917 345.231 215.886 345.231Z" fill="#2C1230"/>
<path d="M181.063 361.932L300.453 321.665C300.453 321.665 302.642 329.591 292.358 333.298C282.073 337.006 193.449 366.335 193.449 366.335C193.449 366.335 185.883 368.282 181.068 361.937L181.063 361.932Z" fill="#2C1230"/>
<path d="M190.77 366.896C188.051 366.896 183.874 366.134 180.825 362.107C180.769 362.03 180.748 361.932 180.779 361.839C180.81 361.746 180.877 361.674 180.97 361.644L300.36 321.376C300.437 321.351 300.525 321.356 300.597 321.397C300.669 321.438 300.726 321.505 300.746 321.582C300.767 321.665 302.889 329.822 292.465 333.576C282.294 337.248 194.431 366.325 193.546 366.618C193.51 366.629 192.402 366.902 190.775 366.902L190.77 366.896ZM181.562 362.076C186.207 367.792 193.298 366.057 193.371 366.036C194.236 365.748 282.088 336.677 292.254 333.01C301.122 329.812 300.514 323.539 300.231 322.051L181.562 362.076Z" fill="#2C1230"/>
<path d="M248.568 379.802C257.083 379.802 263.987 372.899 263.987 364.383C263.987 355.868 257.083 348.964 248.568 348.964C240.052 348.964 233.149 355.868 233.149 364.383C233.149 372.899 240.052 379.802 248.568 379.802Z" fill="#2C1230"/>
<path d="M248.567 380.096C239.9 380.096 232.85 373.045 232.85 364.378C232.85 355.711 239.9 348.661 248.567 348.661C257.234 348.661 264.285 355.711 264.285 364.378C264.285 373.045 257.234 380.096 248.567 380.096ZM248.567 349.263C240.229 349.263 233.447 356.045 233.447 364.383C233.447 372.721 240.229 379.498 248.567 379.498C256.905 379.498 263.682 372.716 263.682 364.383C263.682 356.051 256.9 349.263 248.567 349.263Z" fill="#2C1230"/>
<path d="M196.796 110.812L211.566 115.395L197.337 124.588C197.337 124.588 192.949 126.704 186.872 123.934C182.835 122.09 181.223 119.155 181.223 119.155L196.796 110.812Z" fill="#FDD4B6"/>
<path d="M160.077 130.139C160.011 130.139 159.949 130.119 159.892 130.078C159.758 129.975 159.738 129.789 159.835 129.655C161.401 127.626 165.13 122.935 165.166 122.888C165.269 122.76 165.459 122.739 165.588 122.842C165.717 122.945 165.737 123.136 165.634 123.264C165.598 123.311 161.875 127.997 160.309 130.021C160.247 130.098 160.16 130.139 160.072 130.139H160.077Z" fill="#2C1230"/>
<path d="M215.619 100.898C228.895 101.738 249.119 110.585 247.61 115.715C246.101 120.844 235.688 114.056 234.483 115.715C233.278 117.373 242.934 118.279 242.784 120.391C242.635 122.502 234.936 119.484 234.184 121.148C233.427 122.806 248.975 131.257 243.84 136.386C238.711 141.516 217.014 127.029 211.112 118.763C205.211 110.498 203.249 100.116 215.624 100.898H215.619Z" fill="#2C1230"/>
<path d="M240.673 137.761C240.426 137.761 240.168 137.751 239.901 137.73C231.887 137.066 216.005 126.133 210.865 118.938C207.523 114.257 204.742 107.83 206.967 103.823C208.311 101.403 211.241 100.321 215.639 100.594C227.026 101.315 243.562 107.871 247.239 113.119C247.919 114.087 248.14 114.988 247.904 115.797C247.662 116.611 247.198 117.203 246.523 117.558C244.623 118.547 241.482 117.532 238.706 116.631C236.996 116.07 235.049 115.442 234.725 115.89C234.663 115.972 234.679 116.013 234.684 116.034C234.843 116.513 236.718 117.1 238.227 117.563C240.771 118.356 243.176 119.103 243.083 120.411C243.063 120.694 242.939 120.931 242.728 121.106C241.997 121.704 240.241 121.457 238.381 121.194C236.754 120.967 234.725 120.684 234.457 121.271C234.364 121.663 236.249 123.254 237.63 124.418C240.761 127.06 245.045 130.675 245.179 133.868C245.22 134.888 244.845 135.809 244.057 136.597C243.284 137.37 242.151 137.756 240.678 137.756L240.673 137.761ZM214.331 101.156C210.881 101.156 208.584 102.15 207.492 104.117C205.772 107.217 207.286 112.898 211.355 118.593C216.422 125.69 232.068 136.479 239.947 137.133C241.621 137.277 242.857 136.948 243.624 136.175C244.299 135.5 244.613 134.759 244.572 133.899C244.448 130.963 240.277 127.446 237.233 124.881C234.684 122.734 233.571 121.755 233.901 121.029C234.354 120.035 236.254 120.298 238.453 120.607C240.024 120.823 241.806 121.081 242.337 120.643C242.424 120.576 242.465 120.494 242.47 120.375C242.532 119.541 239.932 118.732 238.036 118.145C235.755 117.435 234.349 116.966 234.102 116.23C234.05 116.07 234.025 115.818 234.225 115.545C234.807 114.746 236.517 115.297 238.876 116.07C241.404 116.894 244.551 117.919 246.225 117.033C246.76 116.75 247.11 116.296 247.306 115.637C247.492 115.014 247.296 114.283 246.729 113.474C243.207 108.438 226.614 101.902 215.588 101.207C215.15 101.181 214.723 101.166 214.316 101.166L214.331 101.156Z" fill="#2C1230"/>
<path d="M207.682 114.463C207.682 114.463 204.211 114.355 199.927 112.846C195.642 111.337 193.283 106.96 196.306 104.694C199.324 102.428 210.942 98.8074 218.338 102.428C225.733 106.048 222.983 112.856 213.661 113.443C218.188 116.008 216.211 118.974 212.755 118.907C209.299 118.841 206.086 117.285 207.688 114.458L207.682 114.463Z" fill="#FDD4B6"/>
<path d="M213.358 108.618C213.322 108.618 213.286 108.613 213.25 108.597C213.096 108.541 213.018 108.366 213.075 108.211C213.441 107.233 214.254 104.313 213.219 103.777C212.73 103.525 211.978 103.638 211.103 103.767C209.64 103.983 207.822 104.251 205.86 103.164C205.911 104.792 206.483 105.585 206.493 105.59C206.591 105.724 206.565 105.909 206.432 106.012C206.303 106.11 206.117 106.089 206.014 105.955C205.983 105.914 205.252 104.936 205.257 102.979C205.257 102.881 205.257 102.634 205.474 102.51C205.628 102.423 205.814 102.443 206.03 102.567C207.863 103.638 209.614 103.38 211.02 103.175C211.993 103.03 212.838 102.907 213.502 103.247C215.202 104.122 213.811 107.99 213.647 108.427C213.6 108.546 213.487 108.623 213.363 108.623L213.358 108.618Z" fill="#2C1230"/>
<path d="M210.968 108.618C210.917 108.618 210.865 108.608 210.819 108.577C208.939 107.495 208.996 106.058 208.996 105.997C209.006 105.837 209.14 105.713 209.294 105.713H209.31C209.475 105.724 209.603 105.863 209.593 106.028C209.593 106.089 209.583 107.176 211.112 108.057C211.257 108.139 211.303 108.324 211.221 108.469C211.164 108.566 211.061 108.618 210.958 108.618H210.968Z" fill="#2C1230"/>
<path d="M200.642 105.574C201.307 105.652 202.903 106.079 202.646 107.366C202.388 108.654 199.695 107.881 198.696 106.908C197.985 106.213 198.696 105.353 200.642 105.574Z" fill="#2C1230"/>
<path d="M212.863 119.211H212.745C210.68 119.175 208.151 118.578 207.265 117.017C206.987 116.533 206.776 115.761 207.214 114.736C206.127 114.654 203.248 114.334 199.829 113.134C198.567 112.686 197.419 111.986 196.518 111.105C196.399 110.987 196.399 110.796 196.518 110.678C196.636 110.559 196.827 110.554 196.945 110.673C197.784 111.497 198.856 112.151 200.035 112.568C204.217 114.041 207.667 114.17 207.698 114.17C207.806 114.17 207.899 114.231 207.95 114.324C208.002 114.417 208.002 114.53 207.95 114.618C207.502 115.411 207.446 116.121 207.791 116.724C208.424 117.826 210.376 118.568 212.766 118.614H212.869C214.424 118.614 215.68 117.955 215.948 116.987C216.231 115.946 215.346 114.751 213.517 113.716C213.373 113.634 213.322 113.449 213.404 113.309C213.487 113.16 213.667 113.109 213.816 113.196C215.907 114.376 216.896 115.817 216.53 117.146C216.19 118.398 214.728 119.216 212.874 119.216L212.863 119.211Z" fill="#2C1230"/>
<path d="M211.571 101.964C211.437 101.964 211.313 101.872 211.277 101.738C211.267 101.696 211.035 100.924 209.681 100.414C209.526 100.357 209.449 100.182 209.506 100.028C209.563 99.8734 209.738 99.8013 209.892 99.8528C211.571 100.486 211.849 101.547 211.859 101.593C211.901 101.753 211.798 101.918 211.638 101.954C211.612 101.959 211.592 101.964 211.566 101.964H211.571Z" fill="#2C1230"/>
<path d="M208.404 102.289C208.348 102.289 208.286 102.274 208.239 102.238C208.214 102.222 207.647 101.841 207.24 101.269C207.142 101.135 207.173 100.945 207.307 100.847C207.441 100.749 207.631 100.785 207.724 100.914C208.069 101.393 208.564 101.733 208.569 101.738C208.708 101.831 208.744 102.016 208.652 102.155C208.595 102.243 208.497 102.289 208.404 102.289Z" fill="#2C1230"/>
<path d="M161.184 117.208C162.458 117.208 163.491 116.175 163.491 114.901C163.491 113.627 162.458 112.594 161.184 112.594C159.909 112.594 158.876 113.627 158.876 114.901C158.876 116.175 159.909 117.208 161.184 117.208Z" fill="#FFEA00"/>
<path d="M151.399 96.181C150.94 96.9998 150.055 97.5508 149.019 97.5508C147.505 97.5508 146.254 96.3252 146.254 94.7853C146.254 94.4249 146.326 94.0644 146.47 93.7296C148.056 94.5227 149.715 95.3415 151.399 96.181Z" fill="#FFEA00"/>
<path d="M243.109 149.585C242.63 149.972 242.028 150.188 241.379 150.188C239.865 150.188 238.613 148.962 238.613 147.423C238.613 147.16 238.66 146.918 238.732 146.676C240.174 147.639 241.641 148.602 243.109 149.585Z" fill="#FFEA00"/>
<path d="M167.709 154.967C168.983 154.967 170.016 153.934 170.016 152.66C170.016 151.386 168.983 150.353 167.709 150.353C166.435 150.353 165.402 151.386 165.402 152.66C165.402 153.934 166.435 154.967 167.709 154.967Z" fill="#FFEA00"/>
<path d="M216.293 142.448C217.568 142.448 218.601 141.415 218.601 140.141C218.601 138.866 217.568 137.833 216.293 137.833C215.019 137.833 213.986 138.866 213.986 140.141C213.986 141.415 215.019 142.448 216.293 142.448Z" fill="#FFEA00"/>
<path d="M186.872 139.471C188.146 139.471 189.179 138.438 189.179 137.164C189.179 135.89 188.146 134.857 186.872 134.857C185.597 134.857 184.564 135.89 184.564 137.164C184.564 138.438 185.597 139.471 186.872 139.471Z" fill="#FFEA00"/>
<path d="M156.76 143.792C156.76 145.79 155.122 147.422 153.129 147.422C151.929 147.422 150.869 146.846 150.22 145.955C151.111 144.08 152.094 142.108 153.202 140.135C155.174 140.182 156.76 141.794 156.76 143.792Z" fill="#FFEA00"/>
<path d="M194.679 150.044C193.479 152.377 191.815 155.214 189.725 157.934C188.113 157.213 186.985 155.575 186.985 153.68C186.985 151.084 189.101 148.968 191.697 148.968C192.825 148.968 193.886 149.374 194.679 150.049V150.044Z" fill="#FFEA00"/>
<path d="M144.154 179.11C144.004 179.11 143.876 179.002 143.855 178.852C143.834 178.688 143.948 178.533 144.112 178.513C154.289 177.091 156.457 170.798 156.477 170.731C156.529 170.571 156.699 170.494 156.853 170.541C157.013 170.592 157.095 170.762 157.049 170.916C156.961 171.189 154.762 177.627 144.195 179.105C144.179 179.105 144.169 179.105 144.154 179.105V179.11Z" fill="#2C1230"/>
<path d="M184.436 172.647C182.535 172.647 180.043 172.364 178.848 171.025C178.74 170.901 178.75 170.71 178.874 170.602C178.997 170.489 179.188 170.494 179.301 170.628C181.124 172.662 186.774 171.916 186.836 171.9C187.016 171.874 187.155 171.993 187.175 172.158C187.196 172.322 187.083 172.477 186.918 172.497C186.815 172.513 185.775 172.652 184.441 172.652L184.436 172.647Z" fill="#2C1230"/>
<path d="M220.011 323.745C219.203 323.745 218.569 323.586 218.173 323.21C217.467 322.545 217.519 321.407 218.332 319.734C218.93 318.498 219.769 317.308 220.768 316.175C217.472 316.989 214.763 317.205 213.718 316.35C213.26 315.974 212.894 315.232 213.733 313.811C217.189 307.956 226.562 301.122 231.032 300.293C232.057 300.102 232.834 300.21 233.344 300.617C233.473 300.72 233.494 300.911 233.391 301.039C233.288 301.168 233.097 301.194 232.968 301.086C232.608 300.797 231.974 300.725 231.14 300.885C226.783 301.688 217.637 308.378 214.248 314.115C213.497 315.392 213.95 315.763 214.099 315.881C214.964 316.582 217.925 316.262 221.556 315.325C227.077 309.691 236.393 305.746 238.958 305.88C239.426 305.906 239.72 306.066 239.823 306.359C239.972 306.781 239.663 307.312 238.824 308.074C236.079 310.556 228.148 314.166 221.839 315.897C220.598 317.189 219.568 318.564 218.878 320.001C218.209 321.392 218.111 322.324 218.59 322.777C220.835 324.899 234.132 318.209 239.066 315.454C239.215 315.372 239.395 315.428 239.478 315.572C239.56 315.717 239.504 315.897 239.359 315.979C237.753 316.875 225.259 323.75 220.016 323.75L220.011 323.745ZM238.808 306.478C238.705 306.478 238.582 306.478 238.427 306.498C235.425 306.828 227.782 310.247 222.725 315.006C228.406 313.394 235.27 310.469 238.412 307.621C239.287 306.828 239.251 306.555 239.251 306.555C239.251 306.555 239.169 306.478 238.813 306.478H238.808Z" fill="#2C1230"/>
</g>
<defs>
<radialGradient id="paint0_radial_215_58355" cx="0" cy="0" r="1" gradientUnits="userSpaceOnUse" gradientTransform="translate(200.537 200) rotate(90) scale(368.704)">
<stop stop-color="#FFEA00"/>
<stop offset="1" stop-color="white"/>
</radialGradient>
<clipPath id="clip0_215_58355">
<rect width="247.088" height="316.678" fill="white" transform="translate(76.9927 63.4172)"/>
</clipPath>
</defs>
</svg>
