<svg width="108" height="108" viewBox="0 0 108 108" fill="none" xmlns="http://www.w3.org/2000/svg">
<circle opacity="0.5" cx="54.5644" cy="53.8133" r="50.0753" transform="rotate(-4.17828 54.5644 53.8133)" fill="white"/>
<path d="M34.2101 40.2424C32.5447 39.4366 30.5414 40.1333 29.7356 41.7987C28.9297 43.4641 29.6265 45.4674 31.2919 46.2732L34.2101 40.2424ZM77.4782 67.5321C79.2256 66.9244 80.1494 65.0151 79.5417 63.2677L69.6375 34.792C69.0297 33.0446 67.1204 32.1207 65.373 32.7285C63.6256 33.3363 62.7018 35.2455 63.3095 36.9929L72.1133 62.3047L46.8015 71.1084C45.0541 71.7162 44.1302 73.6254 44.738 75.3728C45.3458 77.1203 47.255 78.0441 49.0025 77.4363L77.4782 67.5321ZM32.751 43.2578L31.2919 46.2732L74.9186 67.3836L76.3777 64.3682L77.8368 61.3528L34.2101 40.2424L32.751 43.2578Z" fill="black"/>
</svg>
