<svg width="403" height="402" viewBox="0 0 403 402" fill="none" xmlns="http://www.w3.org/2000/svg">
<circle cx="201.603" cy="200.989" r="200.903" fill="url(#paint0_radial_66_13798)"/>
<path d="M269.622 167.519C252.578 167.519 233.224 182.827 222.85 203.835C212.218 224.701 215.624 239.881 233.353 239.881C251.081 239.881 269.622 224.843 279.983 203.835C290.614 182.557 286.795 167.519 269.622 167.519ZM263.893 203.693C257.209 214.666 249.984 223.066 245.481 223.066C241.248 223.066 242.074 214.936 249.029 203.693C255.713 192.578 262.938 184.178 267.442 184.178C271.532 184.178 270.719 192.308 263.893 203.693Z" fill="black"/>
<path d="M182.759 191.498L174.85 204.233H194.987C184.028 220.067 172.755 229.846 165.843 229.846C157.521 229.846 160.798 213.173 173.753 190.687C186.835 168.059 202.255 151.387 211.248 151.387C218.202 151.387 216.293 167.505 207.286 183.495H226.097C246.548 140.542 231 123.869 213.414 123.869C184.911 123.869 152.875 152.467 132.695 189.181C111.561 227.671 114.012 257.477 141.146 257.477C171.957 257.477 201.828 229.974 222.962 191.483H182.745L182.759 191.498Z" fill="black"/>
<defs>
<radialGradient id="paint0_radial_66_13798" cx="0" cy="0" r="1" gradientUnits="userSpaceOnUse" gradientTransform="translate(201.603 200.989) rotate(90) scale(370.369)">
<stop stop-color="#FFEA00"/>
<stop offset="1" stop-color="white"/>
</radialGradient>
</defs>
</svg>
