<svg width="221" height="53" viewBox="0 0 221 53" fill="none" xmlns="http://www.w3.org/2000/svg">
<g clip-path="url(#clip0_51_13738)">
<path d="M18.2177 44.5292H24.6821V7.32117H15.2794C5.8232 7.32117 0.854703 12.193 0.854703 19.3669C0.854703 25.0954 3.57936 28.4682 8.44101 31.948L-9.15527e-05 44.5292H6.99854L16.4013 30.449L13.1424 28.254C9.18895 25.5772 7.26567 23.4892 7.26567 18.9922C7.26567 15.0304 10.0437 12.3536 15.3328 12.3536H18.2177V44.5292ZM142.857 45.0645C145.796 45.0645 147.879 44.5292 149.429 43.4049V38.2118C147.826 39.3361 145.903 40.0321 143.231 40.0321C138.69 40.0321 136.821 36.4987 136.821 30.9309C136.821 25.0954 139.118 22.0973 143.285 22.0973C145.742 22.0973 148.147 22.9539 149.429 23.7569V18.3497C148.093 17.6002 145.742 17.0649 142.59 17.0649C134.47 17.0649 130.249 22.9003 130.249 31.0915C130.249 40.0856 134.363 45.0645 142.857 45.0645ZM123.411 44.5292H130.623L120.419 30.2349L129.394 17.6002H122.984L114.008 30.2349V17.6002H107.651V44.5292H114.008V31.5198L123.411 44.5292ZM85.8534 33.34H103.377V29.9672C103.377 20.5983 99.263 17.0649 92.9054 17.0649C85.1588 17.0649 81.4725 23.0074 81.4725 31.145C81.4725 40.5139 86.0671 45.0645 94.1876 45.0645C98.2479 45.0645 101.24 43.9938 103.11 42.7089V37.5159C101.133 38.8543 97.8205 40.0321 94.7219 40.0321C89.7534 40.0321 88.0438 37.5159 88.0438 32.3228V29.3248C88.0438 24.6135 89.5931 22.0973 92.7986 22.0973C95.9506 22.0973 96.9123 24.7206 96.9123 28.0934V29.9137L99.0493 28.6288H85.8534V33.34ZM70.7342 39.4967H61.7588C63.5219 35.4279 64.0027 28.0934 64.0027 23.4357V22.6327H70.7342V39.4967ZM79.9232 39.4967H77.0917V17.6002H58.5534V19.9023C58.5534 26.4873 58.126 34.9996 55.8821 39.4967H53.9054V50.6859H59.7821V44.5292H74.0465V50.6859H79.9232V39.4967ZM44.8766 17.6002V28.254H36.3821V17.6002H30.0246V44.5292H36.3821V33.2865H44.8766V44.5292H51.2342V17.6002H44.8766Z" fill="#FFEA00"/>
<path d="M200.039 45.4606C193.073 45.4606 191.734 39.5308 195.913 31.3773C199.985 23.1709 207.594 17.1882 214.291 17.1882C221.042 17.1882 222.542 23.065 218.363 31.3773C214.291 39.5838 207.219 45.4606 200.039 45.4606ZM191.359 10.8878C194.091 10.8878 193.341 17.1882 189.805 23.4356H197.199C205.236 6.6522 199.128 0.140015 192.216 0.140015C181.018 0.140015 168.426 11.3113 160.497 25.6593C152.192 40.6956 153.156 52.3434 163.819 52.3434C175.928 52.3434 187.662 41.5956 195.967 26.5594H180.16L177.053 31.5362H187.447L187.822 27.0359C182.732 35.8247 176.839 41.5427 173.517 41.5427C170.248 41.5427 171.534 35.0305 176.624 26.2417C181.768 17.4 187.822 10.8878 191.359 10.8878ZM212.041 31.3244C214.72 26.877 215.041 23.7004 213.434 23.7004C211.666 23.7004 208.826 26.9829 206.2 31.3244C203.468 35.7188 203.146 38.8955 204.807 38.8955C206.576 38.8955 209.415 35.6129 212.041 31.3244Z" fill="#FFEA00"/>
</g>
<defs>
<clipPath id="clip0_51_13738">
<rect width="220.692" height="52.2034" fill="white" transform="translate(0 0.140015)"/>
</clipPath>
</defs>
</svg>
