<svg width="221" height="53" viewBox="0 0 221 53" fill="none" xmlns="http://www.w3.org/2000/svg">
<g clip-path="url(#clip0_51_13535)">
<path d="M18.2177 44.3891H24.6821V7.1811H15.2794C5.8232 7.1811 0.854703 12.0529 0.854703 19.2269C0.854703 24.9553 3.57936 28.3281 8.44101 31.808L-9.15527e-05 44.3891H6.99854L16.4013 30.309L13.1424 28.114C9.18895 25.4371 7.26567 23.3492 7.26567 18.8521C7.26567 14.8904 10.0437 12.2135 15.3328 12.2135H18.2177V44.3891ZM142.857 44.9245C145.796 44.9245 147.879 44.3891 149.429 43.2648V38.0718C147.826 39.1961 145.903 39.892 143.231 39.892C138.69 39.892 136.821 36.3586 136.821 30.7908C136.821 24.9553 139.118 21.9572 143.285 21.9572C145.742 21.9572 148.147 22.8138 149.429 23.6169V18.2097C148.093 17.4602 145.742 16.9248 142.59 16.9248C134.47 16.9248 130.249 22.7603 130.249 30.9514C130.249 39.9456 134.363 44.9245 142.857 44.9245ZM123.411 44.3891H130.623L120.419 30.0948L129.394 17.4602H122.984L114.008 30.0948V17.4602H107.651V44.3891H114.008V31.3797L123.411 44.3891ZM85.8534 33.1999H103.377V29.8271C103.377 20.4582 99.263 16.9248 92.9054 16.9248C85.1588 16.9248 81.4725 22.8674 81.4725 31.0049C81.4725 40.3739 86.0671 44.9245 94.1876 44.9245C98.2479 44.9245 101.24 43.8537 103.11 42.5689V37.3758C101.133 38.7142 97.8205 39.892 94.7219 39.892C89.7534 39.892 88.0438 37.3758 88.0438 32.1827V29.1847C88.0438 24.4735 89.5931 21.9572 92.7986 21.9572C95.9506 21.9572 96.9123 24.5805 96.9123 27.9533V29.7736L99.0493 28.4887H85.8534V33.1999ZM70.7342 39.3567H61.7588C63.5219 35.2879 64.0027 27.9533 64.0027 23.2957V22.4926H70.7342V39.3567ZM79.9232 39.3567H77.0917V17.4602H58.5534V19.7622C58.5534 26.3472 58.126 34.8596 55.8821 39.3567H53.9054V50.5458H59.7821V44.3891H74.0465V50.5458H79.9232V39.3567ZM44.8766 17.4602V28.114H36.3821V17.4602H30.0246V44.3891H36.3821V33.1464H44.8766V44.3891H51.2342V17.4602H44.8766Z" fill="black"/>
<path d="M200.039 45.3206C193.073 45.3206 191.734 39.3908 195.913 31.2373C199.985 23.0309 207.594 17.0482 214.291 17.0482C221.042 17.0482 222.542 22.925 218.363 31.2373C214.291 39.4437 207.219 45.3206 200.039 45.3206ZM191.359 10.7477C194.091 10.7477 193.341 17.0482 189.805 23.2956H197.199C205.236 6.51218 199.128 -3.8147e-06 192.216 -3.8147e-06C181.018 -3.8147e-06 168.426 11.1713 160.497 25.5193C152.192 40.5556 153.156 52.2034 163.819 52.2034C175.928 52.2034 187.662 41.4556 195.967 26.4194H180.16L177.053 31.3961H187.447L187.822 26.8959C182.732 35.6847 176.839 41.4027 173.517 41.4027C170.248 41.4027 171.534 34.8905 176.624 26.1017C181.768 17.2599 187.822 10.7477 191.359 10.7477ZM212.041 31.1844C214.72 26.737 215.041 23.5603 213.434 23.5603C211.666 23.5603 208.826 26.8429 206.2 31.1844C203.468 35.5788 203.146 38.7555 204.807 38.7555C206.576 38.7555 209.415 35.4729 212.041 31.1844Z" fill="black"/>
</g>
<defs>
<clipPath id="clip0_51_13535">
<rect width="220.692" height="52.2034" fill="white"/>
</clipPath>
</defs>
</svg>
