<svg width="66" height="48" viewBox="0 0 66 48" fill="none" xmlns="http://www.w3.org/2000/svg">
<path d="M32.5866 14.7347L50.9387 33.0868M50.9387 14.7347L32.5866 33.0868M26.4693 2.5C24.9493 2.50009 23.4839 3.06599 22.3584 4.08745L3.00307 21.6443C2.68717 21.931 2.43474 22.2806 2.26199 22.6707C2.08924 23.0607 2 23.4826 2 23.9092C2 24.3358 2.08924 24.7577 2.26199 25.1478C2.43474 25.5379 2.68717 25.8875 3.00307 26.1742L22.3584 43.7341C23.4839 44.7555 24.9493 45.3214 26.4693 45.3215H57.056C58.6785 45.3215 60.2344 44.677 61.3817 43.5298C62.5289 42.3825 63.1734 40.8266 63.1734 39.2041V8.61736C63.1734 6.99493 62.5289 5.43896 61.3817 4.29173C60.2344 3.14451 58.6785 2.5 57.056 2.5H26.4693Z" stroke="black" stroke-width="4" stroke-linecap="round" stroke-linejoin="round"/>
</svg>
